<?xml version="1.0" encoding="UTF-8" standalone="no"?>
<!DOCTYPE svg PUBLIC "-//W3C//DTD SVG 1.1//EN" "http://www.w3.org/Graphics/SVG/1.1/DTD/svg11.dtd">
<svg width="100%" height="100%" viewBox="0 0 296 296" version="1.1" xmlns="http://www.w3.org/2000/svg" xmlns:xlink="http://www.w3.org/1999/xlink" xml:space="preserve" xmlns:serif="http://www.serif.com/" style="fill-rule:evenodd;clip-rule:evenodd;stroke-linejoin:round;stroke-miterlimit:2;">
    <g transform="matrix(1.08063,0,0,1.08063,-441.948,-898.843)">
        <g transform="matrix(0.142421,0,0,0.142421,369.061,799.554)">
            <circle cx="1240.16" cy="1186.19" r="959.915" style="fill:#f06c24;"/>
        </g>
        <g transform="matrix(0.925389,0,0,0.925389,50.2552,-232.922)">
            <path d="M502.981,1409.74C502.651,1409.64 502.441,1409.32 502.482,1408.98C502.523,1408.63 502.803,1408.37 503.147,1408.35C510.461,1407.88 517.483,1406.18 523.96,1403.48C531.263,1400.42 539.489,1400.42 546.787,1403.49C553.251,1406.2 560.248,1407.9 567.575,1408.36C567.918,1408.38 568.199,1408.64 568.24,1408.99C568.281,1409.33 568.071,1409.65 567.742,1409.75C557.472,1412.76 546.611,1414.38 535.375,1414.38C524.13,1414.38 513.259,1412.76 502.981,1409.74ZM542.358,1361.18C540.559,1363.13 538.028,1364.24 535.377,1364.24C532.725,1364.24 530.194,1363.13 528.395,1361.18C520.654,1352.86 514.777,1342.58 511.632,1330.84C510.091,1325.09 504.168,1321.67 498.414,1323.21C492.661,1324.75 489.241,1330.67 490.783,1336.43C494.747,1351.22 502.736,1363.87 513.258,1373.51C514.389,1374.52 514.897,1376.05 514.587,1377.53C514.277,1379.01 513.198,1380.21 511.759,1380.67C511.765,1380.7 511.762,1380.7 511.76,1380.7C509.036,1381.58 506.049,1380.88 503.999,1378.88C482.303,1357.38 472.406,1325.16 480.872,1293.57C482.641,1286.96 478.717,1280.17 472.115,1278.4C465.512,1276.63 458.716,1280.55 456.946,1287.16C448.473,1318.78 456.994,1350.98 476.9,1374.05C478.276,1375.63 478.473,1377.92 477.388,1379.71C476.303,1381.51 474.184,1382.39 472.146,1381.91C472.104,1381.92 472.068,1381.92 472.033,1381.91C470.447,1381.53 469.023,1380.65 467.97,1379.4C433.298,1338 435.418,1276.14 474.326,1237.23C479.781,1231.78 479.781,1222.92 474.326,1217.46C468.872,1212.01 460.015,1212.01 454.56,1217.46L454.56,1217.46C409.957,1262.07 409.957,1334.49 454.56,1379.1C455.001,1379.54 455.445,1379.97 455.892,1380.41C462.332,1386.69 469.391,1392.15 477.117,1396.76C480.561,1398.82 484.5,1399.91 488.514,1399.91C488.514,1399.92 488.514,1399.92 488.514,1399.92C500.958,1399.92 513.317,1397.44 524.557,1393.21C531.536,1390.62 539.215,1390.62 546.194,1393.21C557.434,1397.44 569.793,1399.92 582.237,1399.92C582.237,1399.92 582.237,1399.92 582.237,1399.92C586.253,1399.92 590.193,1398.84 593.64,1396.77C601.36,1392.15 608.419,1386.69 614.859,1380.41C615.305,1379.97 615.75,1379.54 616.191,1379.1C660.794,1334.49 660.794,1262.07 616.191,1217.46L616.191,1217.46C610.736,1212.01 601.879,1212.01 596.424,1217.46C590.97,1222.92 590.97,1231.78 596.424,1237.23C635.333,1276.14 637.453,1338 602.781,1379.4C601.728,1380.65 600.304,1381.53 598.718,1381.91C598.683,1381.92 598.647,1381.92 598.605,1381.91C596.567,1382.39 594.448,1381.51 593.363,1379.71C592.278,1377.92 592.475,1375.63 593.851,1374.05C613.757,1350.98 622.278,1318.78 613.804,1287.16C612.035,1280.55 605.239,1276.63 598.636,1278.4C592.034,1280.17 588.11,1286.96 589.879,1293.57C598.345,1325.16 588.448,1357.38 566.752,1378.88C564.702,1380.88 561.715,1381.58 558.991,1380.7C558.989,1380.7 558.986,1380.7 558.992,1380.67C557.553,1380.21 556.474,1379.01 556.164,1377.53C555.854,1376.05 556.361,1374.52 557.493,1373.51C568.015,1363.87 576.004,1351.22 579.968,1336.43C581.51,1330.67 578.09,1324.75 572.337,1323.21C566.583,1321.67 560.66,1325.09 559.118,1330.84C555.974,1342.58 550.098,1352.86 542.358,1361.18ZM535.375,1244.53C546.535,1244.53 555.595,1254.49 555.595,1266.75C555.595,1279.01 546.535,1291.57 535.375,1291.57C524.216,1291.57 515.156,1279.01 515.156,1266.75C515.156,1254.49 524.216,1244.53 535.375,1244.53Z" style="fill:#021f3c;"/>
        </g>
    </g>
</svg>
