<?xml version="1.0" encoding="UTF-8" standalone="no"?>
<!DOCTYPE svg PUBLIC "-//W3C//DTD SVG 1.1//EN" "http://www.w3.org/Graphics/SVG/1.1/DTD/svg11.dtd">
<svg width="100%" height="100%" viewBox="0 0 256 256" version="1.1" xmlns="http://www.w3.org/2000/svg" xmlns:xlink="http://www.w3.org/1999/xlink" xml:space="preserve" xmlns:serif="http://www.serif.com/" style="fill-rule:evenodd;clip-rule:evenodd;stroke-linejoin:round;stroke-miterlimit:2;">
    <path d="M128,98.445l82.769,-82.769c6.526,-6.526 17.123,-6.526 23.649,0c6.527,6.526 6.527,17.124 0,23.65l-82.768,82.768l82.768,82.769c6.527,6.526 6.527,17.124 0,23.65c-6.526,6.526 -17.123,6.526 -23.649,-0l-82.769,-82.769l-82.769,82.769c-6.526,6.526 -17.123,6.526 -23.649,-0c-6.527,-6.526 -6.527,-17.124 -0,-23.65l82.768,-82.769l-82.768,-82.768c-6.527,-6.526 -6.527,-17.124 -0,-23.65c6.526,-6.526 17.123,-6.526 23.649,0l82.769,82.769Z" style="fill:#111;"/>
</svg>
